 <svg  version="1.0" xmlns="http://www.w3.org/2000/svg"  width="900.000000pt" height="900.000000pt" viewBox="0 0 900.000000 900.000000"  preserveAspectRatio="xMidYMid meet">  <g transform="translate(0.000000,900.000000) scale(0.100000,-0.100000)" fill="#191c53" stroke="none"> <path d="M0 4500 l0 -4500 4500 0 4500 0 0 4500 0 4500 -4500 0 -4500 0 0 -4500z m4578 3074 c2 -10 9 -35 16 -54 7 -19 28 -82 46 -140 18 -58 38 -121 45 -140 29 -82 37 -107 45 -135 4 -16 12 -41 17 -55 6 -14 25 -72 43 -130 17 -58 38 -120 46 -138 8 -18 14 -39 14 -47 0 -8 6 -29 14 -47 7 -18 28 -80 46 -138 18 -58 38 -121 45 -140 30 -86 37 -107 46 -143 5 -21 13 -45 18 -55 5 -9 23 -64 41 -122 18 -58 38 -121 45 -140 30 -86 37 -107 46 -143 5 -21 13 -45 18 -55 5 -9 16 -44 26 -77 9 -33 23 -75 31 -93 8 -18 14 -40 14 -50 0 -9 9 -32 20 -49 l20 -33 1125 0 c993 0 1125 -2 1125 -15 0 -8 -4 -15 -8 -15 -4 0 -17 -7 -27 -15 -24 -18 -217 -157 -441 -320 -91 -66 -240 -174 -330 -240 -91 -66 -221 -160 -290 -210 -68 -49 -134 -98 -147 -109 -12 -10 -40 -30 -62 -44 -33 -21 -222 -159 -260 -190 -5 -4 -32 -23 -60 -42 -85 -58 -180 -131 -188 -145 -6 -12 33 -152 78 -275 7 -19 34 -102 60 -185 26 -82 53 -165 61 -183 8 -18 14 -39 14 -47 0 -8 6 -29 14 -47 7 -18 28 -80 46 -138 17 -58 38 -120 46 -138 8 -18 14 -39 14 -47 0 -8 6 -29 14 -47 7 -18 35 -100 61 -183 26 -82 53 -166 60 -185 7 -19 34 -102 60 -185 26 -82 53 -166 60 -185 30 -83 37 -107 46 -140 5 -19 19 -65 33 -103 13 -37 21 -69 17 -71 -8 -6 -58 29 -419 292 -70 51 -136 99 -147 107 -11 7 -84 60 -161 117 -78 57 -152 110 -164 118 -12 8 -68 49 -124 91 -55 42 -119 87 -141 101 -22 14 -50 34 -62 44 -13 11 -79 60 -147 109 -69 50 -200 145 -291 212 -91 68 -175 123 -186 123 -11 0 -57 -27 -102 -60 -45 -33 -140 -103 -212 -155 -71 -52 -136 -99 -142 -105 -7 -6 -34 -25 -60 -42 -41 -27 -237 -170 -268 -196 -5 -4 -32 -23 -60 -42 -27 -19 -96 -68 -152 -109 -55 -42 -112 -84 -125 -93 -12 -9 -59 -42 -103 -74 -44 -32 -136 -98 -205 -147 -69 -50 -159 -115 -200 -146 -41 -31 -88 -65 -105 -75 -16 -11 -41 -30 -54 -43 -35 -34 -54 -30 -48 9 2 18 10 49 17 68 32 89 40 112 70 210 18 58 39 120 46 138 8 18 14 39 14 47 0 8 6 29 14 47 8 18 29 80 46 138 18 58 37 116 43 130 5 14 13 39 17 55 8 28 15 51 45 135 7 19 21 62 30 95 10 33 21 68 26 77 5 10 13 34 18 55 9 36 16 57 46 143 7 19 27 82 45 140 18 58 36 113 41 122 5 10 13 34 18 55 9 36 15 55 46 143 7 19 21 62 30 95 10 33 24 74 32 92 7 17 13 38 13 48 0 9 7 29 15 45 19 36 12 54 -29 78 -18 11 -41 27 -52 35 -10 9 -75 57 -144 107 -200 144 -436 316 -614 445 -91 66 -239 174 -330 240 -91 66 -239 174 -330 240 -91 66 -199 144 -240 174 -41 30 -73 58 -70 63 3 4 511 8 1128 8 887 0 1126 3 1133 13 5 6 18 39 28 72 10 33 24 74 32 92 7 17 13 38 13 47 0 8 6 30 14 48 8 18 35 98 60 178 25 80 51 159 57 175 6 17 14 44 19 60 8 28 16 53 45 135 7 19 21 62 30 95 10 33 24 75 31 93 8 18 14 39 14 47 0 8 6 29 14 47 8 18 29 80 46 138 18 58 39 120 46 138 8 18 14 39 14 47 0 8 6 29 14 47 8 18 29 80 46 138 18 58 36 113 41 122 5 10 13 34 18 55 5 21 15 54 22 73 6 19 17 51 24 70 7 19 20 60 29 90 27 86 48 131 60 127 6 -2 12 -12 14 -23z m-2858 -3099 c3 -7 -242 -11 -692 -13 -384 -1 -698 2 -698 6 0 5 2 11 4 13 10 9 1381 3 1386 -6z m6905 5 c17 0 17 -2 5 -10 -20 -13 -1367 -14 -1374 -1 -4 5 -1 11 4 13 6 2 311 2 678 0 367 -1 676 -2 687 -2z"/> </g> </svg> 