 <svg  version="1.0" xmlns="http://www.w3.org/2000/svg"  width="300.000000pt" height="300.000000pt" viewBox="0 0 300.000000 300.000000"  preserveAspectRatio="xMidYMid meet">  <g transform="translate(0.000000,300.000000) scale(0.100000,-0.100000)" fill="#1d1e56" stroke="none"> <path d="M0 1500 l0 -1500 1500 0 1500 0 0 1500 0 1500 -1500 0 -1500 0 0 -1500z m2768 78 l2 -328 -1270 0 -1270 0 0 330 0 330 1268 -2 1267 -3 3 -327z"/> <path d="M445 1756 c-114 -51 -142 -245 -47 -329 45 -41 125 -56 192 -37 58 16 71 30 64 67 l-6 32 -39 -19 c-21 -11 -57 -20 -80 -20 -33 0 -47 6 -75 34 -30 30 -34 40 -34 85 0 60 14 95 47 117 35 22 106 20 148 -5 l35 -20 2 24 c0 14 1 31 2 38 3 38 -144 62 -209 33z"/> <path d="M1524 1736 c-63 -63 -35 -130 76 -184 62 -31 80 -53 64 -79 -21 -33 -60 -39 -113 -16 l-49 20 -6 -30 c-7 -35 0 -42 59 -58 113 -31 210 39 184 135 -11 38 -30 55 -113 96 -76 37 -76 90 -1 90 17 0 43 -7 59 -15 37 -20 36 -20 36 20 0 43 -23 55 -107 55 -49 0 -59 -4 -89 -34z"/> <path d="M1925 1756 c-39 -17 -93 -78 -100 -114 -4 -15 -8 -36 -10 -46 -9 -43 17 -117 53 -156 88 -92 255 -71 312 40 22 44 27 130 9 177 -14 38 -57 83 -96 99 -41 17 -128 17 -168 0z m155 -75 c60 -43 63 -140 5 -198 -80 -80 -208 -7 -192 109 13 100 108 145 187 89z"/> <path d="M2005 1618 c-4 -10 -14 -18 -22 -18 -13 0 -13 -3 -3 -15 7 -8 10 -20 7 -27 -3 -9 5 -13 24 -13 20 0 29 5 29 16 0 8 5 20 12 27 9 9 8 12 -5 12 -9 0 -20 8 -26 18 -9 16 -10 16 -16 0z"/> <path d="M796 1608 c-33 -84 -65 -168 -73 -185 l-13 -33 40 0 c38 0 41 3 56 40 l16 40 74 0 74 0 16 -40 c15 -37 19 -40 55 -40 21 0 39 1 39 3 0 2 -18 50 -41 108 -22 57 -54 139 -70 182 l-30 77 -42 0 -42 0 -59 -152z m149 -67 c6 -20 3 -21 -50 -21 -41 0 -55 3 -52 13 3 6 16 45 28 85 l24 72 21 -64 c12 -35 25 -74 29 -85z"/> <path d="M1150 1576 l0 -186 35 0 35 0 0 75 c0 71 1 75 23 75 16 0 34 -19 71 -75 47 -72 50 -75 87 -75 22 0 39 3 39 8 0 4 -23 39 -50 77 l-51 70 26 20 c49 40 51 128 4 171 -17 15 -40 20 -120 22 l-99 4 0 -186z m168 112 c16 -16 15 -63 -2 -77 -7 -6 -31 -12 -52 -14 l-39 -2 -3 53 -3 52 43 0 c24 0 49 -5 56 -12z"/> <path d="M2300 1575 l0 -185 35 0 35 0 0 126 0 126 43 -54 c123 -157 162 -198 190 -198 l27 0 0 185 0 185 -35 0 -35 0 0 -122 c0 -118 -1 -122 -17 -98 -9 14 -53 69 -96 123 -72 88 -83 97 -113 97 l-34 0 0 -185z"/> </g> </svg> 